PathFileType	4	(X/Y/Z)	/Users/itak/Documents/Research/Walk-IL/dataset/trc/00191_00008.trc
DataRate	CameraRate	NumFrames	NumMarkers	Units	OrigDataRate	OrigDataStartFrame	OrigNumFrames
100.000000	100.000000	4	53	mm	100.000000	496	795
Frame#	Time	RPSI			LPSI			L3			STRN			T10			C7			CLAV			RBAK			LBAK			LSHO			LUPA			LAEL			LAOL			LWTS			LWPS			LFRA			LIFD			LHPS			LHTS			RSHO			RUPA			RAEL			RAOL			RWTS			RWPS			RFRA			RIFD			RHTS			RHPS			RBHD			LFHD			RFHD			LBHD			LHIP			RHIP			RASI			LASI			LKNE			LTHI			LANK			LTIP			LTOE			LMT1			LMT5			LHEE			RKNE			RTHI			RANK			RTIP			RTOE			RMT1			RMT5			RHEE			
		X1	Y1	Z1	X2	Y2	Z2	X3	Y3	Z3	X4	Y4	Z4	X5	Y5	Z5	X6	Y6	Z6	X7	Y7	Z7	X8	Y8	Z8	X9	Y9	Z9	X10	Y10	Z10	X11	Y11	Z11	X12	Y12	Z12	X13	Y13	Z13	X14	Y14	Z14	X15	Y15	Z15	X16	Y16	Z16	X17	Y17	Z17	X18	Y18	Z18	X19	Y19	Z19	X20	Y20	Z20	X21	Y21	Z21	X22	Y22	Z22	X23	Y23	Z23	X24	Y24	Z24	X25	Y25	Z25	X26	Y26	Z26	X27	Y27	Z27	X28	Y28	Z28	X29	Y29	Z29	X30	Y30	Z30	X31	Y31	Z31	X32	Y32	Z32	X33	Y33	Z33	X34	Y34	Z34	X35	Y35	Z35	X36	Y36	Z36	X37	Y37	Z37	X38	Y38	Z38	X39	Y39	Z39	X40	Y40	Z40	X41	Y41	Z41	X42	Y42	Z42	X43	Y43	Z43	X44	Y44	Z44	X45	Y45	Z45	X46	Y46	Z46	X47	Y47	Z47	X48	Y48	Z48	X49	Y49	Z49	X50	Y50	Z50	X51	Y51	Z51	X52	Y52	Z52	X53	Y53	Z53	

497	4.96	988.1251831054688	1040.189819335938	-209.1504516601562	1106.805786132812	1049.999267578125	-241.6161956787109	1041.783325195312	1080.380859375	-223.7257385253906	1129.921752929688	1292.499877929688	24.77774047851562	1029.8720703125	1239.421752929688	-258.1146240234375	1069.443481445312	1507.0615234375	-199.9763793945312	1133.9970703125	1404.806030273438	-7.959208965301514	938.57958984375	1337.099609375	-225.3524780273438	1159.265014648438	1480.92138671875	-241.8429565429688	1258.219970703125	1467.295166015625	-197.7252349853516	1310.432373046875	1337.6328125	-262.4811401367188	1335.34765625	1125.998413085938	-275.0874633789062	1248.907104492188	1104.269165039062	-275.1267395019531	1387.779541015625	890.59765625	-186.039306640625	1370.796630859375	874.149658203125	-276.8829650878906	1359.28076171875	1017.10498046875	-280.0939331054688	1393.794921875	700.6629638671875	-179.8064422607422	1384.37451171875	804.408447265625	-263.8924560546875	1414.525390625	812.8605346679688	-197.8809661865234	922.7520141601562	1494.553955078125	-76.46707153320312	848.00634765625	1431.494873046875	-71.20867919921875	776.916748046875	1145.202880859375	-59.66818618774414	865.5078735351562	1132.970825195312	-102.1280670166016	852.59423828125	927.2988891601562	78.54991149902344	780.6116943359375	904.7420043945312	27.26572227478027	769.8995361328125	1073.444702148438	-25.15145492553711	881.7778930664062	740.6592407226562	96.91250610351562	854.7244262695312	835.6394653320312	112.3770446777344	795.5700073242188	824.3883666992188	57.85982894897461	1018.101928710938	1653.7216796875	-142.8639984130859	1173.154296875	1726.126342773438	-6.637208461761475	1048.329956054688	1714.071411132812	19.83108711242676	1149.946533203125	1673.664428710938	-177.3843841552734	1254.785766601562	1006.006713867188	-165.3108367919922	907.213134765625	980.3253784179688	-32.99592590332031	980.0617065429688	1019.899536132812	32.73952865600586	1228.166381835938	1034.06640625	-34.05397415161133	1276.424438476562	506.3746643066406	-44.98587036132812	1288.769775390625	650.7601928710938	-81.11094665527344	1272.394897460938	25.73937606811523	-125.6509017944336	1287.839233398438	274.9833068847656	-83.21657562255859	1281.0849609375	45.46162414550781	91.5806884765625	1227.393310546875	47.92803573608398	51.69448471069336	1326.10888671875	22.18980598449707	-25.81096839904785	1196.2001953125	33.19297790527344	-164.3804168701172	962.1979370117188	476.05126953125	15.97028827667236	933.3936157226562	752.7020874023438	28.71105003356934	915.0678100585938	183.9003601074219	-379.0215148925781	968.7369384765625	365.1611328125	-46.68406677246094	954.7855224609375	55.76086807250977	-212.9744873046875	993.4738159179688	73.73533630371094	-264.5725708007812	880.5218505859375	116.5638732910156	-291.5579223632812	981.7554321289062	208.1359405517578	-423.3538818359375	
498	4.97	993.4539794921875	1041.280517578125	-204.841796875	1112.691162109375	1050.990112304688	-235.2282257080078	1047.652099609375	1081.605224609375	-218.4460601806641	1131.441284179688	1293.226806640625	32.22875213623047	1036.974365234375	1240.90380859375	-252.7313842773438	1075.732299804688	1508.310791015625	-193.1722869873047	1136.072021484375	1405.490600585938	-0.2696697413921356	945.2119140625	1338.562377929688	-221.6177062988281	1166.382568359375	1482.218017578125	-233.1966705322266	1264.35595703125	1468.579833984375	-187.0107574462891	1318.270629882812	1339.076171875	-250.5379638671875	1343.798461914062	1127.34765625	-262.2360229492188	1257.500122070312	1105.54833984375	-264.7862854003906	1394.094482421875	892.5676879882812	-170.4683990478516	1379.848999023438	875.47412109375	-261.7312622070312	1368.063842773438	1018.365478515625	-266.0768432617188	1400.2060546875	702.7728271484375	-162.8645477294922	1393.234130859375	805.8526000976562	-247.9050750732422	1421.412475585938	814.77783203125	-181.0370483398438	926.5564575195312	1495.66259765625	-72.88580322265625	851.6610717773438	1432.641235351562	-69.26206970214844	779.771728515625	1146.2744140625	-59.10258102416992	869.4190673828125	1134.154907226562	-99.67191314697266	854.3308715820312	930.2791748046875	82.73627471923828	783.7696533203125	906.407958984375	30.16403388977051	772.3467407226562	1074.534912109375	-24.20092391967773	885.02490234375	744.3655395507812	104.351936340332	856.567626953125	839.2084350585938	117.8372116088867	798.77880859375	826.5546264648438	62.10676956176758	1023.326171875	1655.033447265625	-136.3522186279297	1175.706909179688	1726.552612304688	3.277379989624023	1050.372192382812	1714.512084960938	27.1398811340332	1155.912841796875	1675.0166015625	-168.1826782226562	1258.882080078125	1006.175354003906	-157.6130981445312	909.181640625	981.8341674804688	-30.19064712524414	981.1991577148438	1021.013000488281	36.60448455810547	1230.632446289062	1034.668579101562	-25.71393394470215	1277.442138671875	505.9509582519531	-42.37941360473633	1290.666137695312	650.5819702148438	-76.37478637695312	1272.3876953125	25.83604049682617	-125.5482635498047	1288.37353515625	274.8185424804688	-82.02403259277344	1281.104248046875	44.94668197631836	91.86106872558594	1227.325439453125	47.78352355957031	51.87538528442383	1326.162109375	22.16578483581543	-25.7960147857666	1196.336791992188	33.70980072021484	-164.4087371826172	964.3427734375	478.5478515625	29.84605979919434	934.6025390625	755.5304565429688	36.03889465332031	929.6245727539062	180.5397338867188	-362.1913452148438	973.6187744140625	366.7743225097656	-31.05851745605469	967.0712890625	56.41647720336914	-192.6269683837891	1006.900390625	74.03724670410156	-243.6001281738281	894.1353149414062	114.3637390136719	-274.3420104980469	996.9530639648438	205.0176391601562	-405.4434814453125	
499	4.98	998.6967163085938	1042.25439453125	-200.4895629882812	1118.434448242188	1051.923461914062	-228.7805938720703	1053.397583007812	1082.75830078125	-213.08740234375	1132.765625	1293.876708984375	39.50512313842773	1043.948364257812	1242.254516601562	-247.2915954589844	1081.807739257812	1509.46044921875	-186.4128112792969	1137.960815429688	1406.11767578125	7.334578037261963	951.7350463867188	1339.913940429688	-217.8674926757812	1173.236572265625	1483.399047851562	-224.5944366455078	1270.185424804688	1469.780151367188	-176.3967132568359	1325.783081054688	1340.438720703125	-238.6551971435547	1352.056396484375	1128.626708984375	-249.3473205566406	1265.985717773438	1106.705810546875	-254.3712005615234	1400.310424804688	894.5413208007812	-154.7929382324219	1388.789916992188	876.7807006835938	-246.3903656005859	1376.671997070312	1019.576599121094	-251.9769439697266	1406.4326171875	704.916015625	-145.7205657958984	1401.954223632812	807.2975463867188	-231.6851196289062	1428.165161132812	816.7191162109375	-164.0462951660156	930.2570190429688	1496.648559570312	-69.46978759765625	855.2384643554688	1433.692260742188	-67.392578125	782.6552124023438	1147.213256835938	-58.78901290893555	873.3577270507812	1135.266723632812	-97.37316131591797	855.9849853515625	933.1768798828125	86.68101501464844	787.0149536132812	907.9464111328125	32.83456420898438	774.89794921875	1075.487426757812	-23.4522819519043	888.33837890625	748.0790405273438	111.6212387084961	858.415771484375	842.7131958007812	123.0758209228516	802.1136474609375	828.606689453125	66.11866760253906	1028.414916992188	1656.321044921875	-129.8411254882812	1177.977294921875	1726.839965820312	13.21979904174805	1052.172973632812	1714.802856445312	34.41378784179688	1161.6787109375	1676.395263671875	-158.9342956542969	1262.752319335938	1006.163146972656	-150.0613403320312	911.1036987304688	983.2559204101562	-27.40545654296875	982.2744140625	1022.032165527344	40.4453010559082	1232.978881835938	1035.1689453125	-17.37827110290527	1278.283447265625	505.5771484375	-40.03231430053711	1292.347045898438	650.3853149414062	-71.89653778076172	1272.362426757812	25.92793273925781	-125.4569778442383	1288.816528320312	274.702392578125	-80.97802734375	1281.100341796875	44.45998001098633	92.14115142822266	1227.2626953125	47.63814926147461	52.03595733642578	1326.20654296875	22.14925956726074	-25.7855167388916	1196.46044921875	34.280029296875	-164.4605102539062	966.0848388671875	481.1690979003906	43.44008636474609	935.5926513671875	758.3427124023438	43.16896057128906	944.0074462890625	176.3343200683594	-344.5919799804688	978.0839233398438	368.4268188476562	-15.46837711334229	979.2379760742188	56.85188674926758	-171.3221740722656	1020.204406738281	74.07243347167969	-221.6201477050781	907.6548461914062	111.4355850219727	-256.296875	1011.946716308594	201.1561431884766	-386.7606811523438	
500	4.99	1003.8447265625	1043.1240234375	-196.0957183837891	1124.032836914062	1052.795654296875	-222.2780151367188	1059.01220703125	1083.843505859375	-207.6382293701172	1133.9091796875	1294.446411132812	46.64176559448242	1050.797485351562	1243.476928710938	-241.7941741943359	1087.678344726562	1510.512329101562	-179.6865539550781	1139.674682617188	1406.675659179688	14.87253761291504	958.1520385742188	1341.152954101562	-214.095458984375	1179.831909179688	1484.465698242188	-216.0284881591797	1275.720092773438	1470.876220703125	-165.8716430664062	1332.961547851562	1341.697143554688	-226.8360900878906	1360.107543945312	1129.815551757812	-236.4380798339844	1274.340942382812	1107.718505859375	-243.8820037841797	1406.41943359375	896.5108032226562	-139.0261993408203	1397.609008789062	878.06396484375	-230.8721313476562	1385.09423828125	1020.73095703125	-237.8077087402344	1412.478881835938	707.0951538085938	-128.3903961181641	1410.533569335938	808.74169921875	-215.2489929199219	1434.77880859375	818.6837158203125	-146.9253387451172	933.851318359375	1497.509643554688	-66.17196655273438	858.7421264648438	1434.632934570312	-65.57108306884766	785.5779418945312	1148.019287109375	-58.6736946105957	877.2951049804688	1136.290771484375	-95.21395874023438	857.5574340820312	935.9583740234375	90.37863159179688	790.3333129882812	909.349853515625	35.3067512512207	777.5531005859375	1076.295166015625	-22.86877250671387	891.6907348632812	751.7509155273438	118.6624603271484	860.2730712890625	846.109619140625	128.0694122314453	805.5657958984375	830.5243530273438	69.90099334716797	1033.359741210938	1657.573120117188	-123.3415222167969	1179.964111328125	1726.994750976562	23.16584587097168	1053.739379882812	1714.953857421875	41.63781356811523	1167.23095703125	1677.772827148438	-149.6406097412109	1266.454467773438	1006.042053222656	-142.4757537841797	912.9901733398438	984.6016235351562	-24.63693237304688	983.308837890625	1022.974365234375	44.28694534301758	1235.2138671875	1035.55322265625	-9.040701866149902	1278.988037109375	505.2455749511719	-37.88976287841797	1293.833618164062	650.1905517578125	-67.62889099121094	1272.329223632812	26.01582908630371	-125.375129699707	1289.190063476562	274.6377868652344	-80.02832794189453	1281.068725585938	43.9908561706543	92.41606140136719	1227.20556640625	47.4921989440918	52.17800140380859	1326.243408203125	22.13875198364258	-25.77828216552734	1196.564819335938	34.84077072143555	-164.5184783935547	967.438720703125	483.9175415039062	56.71122741699219	936.3120727539062	761.0988159179688	49.98397827148438	958.1183471679688	171.3803558349609	-326.2029113769531	982.0882568359375	370.14013671875	0.05073660984635353	990.9815673828125	57.12219619750977	-149.0488128662109	1033.111938476562	73.87397003173828	-198.6042785644531	920.876953125	107.944221496582	-237.3961639404297	1026.6650390625	196.5650939941406	-367.2861328125	
